<svg width="619" height="269" viewBox="0 0 619 269" fill="none" xmlns="http://www.w3.org/2000/svg">
<g clip-path="url(#clip0_8_7)">
<rect width="619" height="269" rx="50" fill="#18171E"/>
<g filter="url(#filter0_i_8_7)">
<path d="M218.674 147.812C231.122 158.164 238.736 169.378 240.986 173.692C255.783 171.809 259.678 158.595 259.776 152.223L208.985 66.3496C211.041 60.762 215.151 49.469 215.151 48.9985C215.151 48.4103 195.48 54.292 187.847 61.3501C117.68 49.5866 88.028 98.6993 83.6242 135.46C79.2204 172.221 111.808 217.511 159.076 224.275C196.89 229.686 223.567 211.237 232.179 201.336C234.136 199.571 238.05 197.101 238.05 201.336C196.948 263.094 71 235.156 71 135.46C81.5691 35.4704 179.92 45.7635 189.022 45.7635C194.893 40.4699 218.674 34 225.426 34C229.184 34.2353 228.949 36.2547 228.362 37.235L222.49 62.5265C234.527 83.7988 260.95 130.99 270.345 149.576C276.51 174.574 237.17 189.866 235.408 186.631C227.775 169.574 192.251 142.812 172.581 126.343C156.845 113.168 154.085 95.5623 154.672 88.4062C154.672 85.7594 160.25 82.5244 159.076 88.4062C157.608 95.7584 163.773 106.934 176.104 116.933C205.756 139.871 203.114 134.872 218.674 147.812Z" fill="url(#paint0_linear_8_7)"/>
</g>
<path d="M371.201 172V101.541H383.799V161.404H415.781V172H371.201ZM430.039 112.82C426.23 112.82 423.252 109.793 423.252 106.18C423.252 102.469 426.23 99.4902 430.039 99.4902C433.848 99.4902 436.777 102.469 436.777 106.18C436.777 109.793 433.848 112.82 430.039 112.82ZM423.936 172V120.242H436.094V172H423.936ZM449.814 172V129.617H442.734V120.242H449.814V115.311C449.814 105.203 454.6 100.516 465.83 100.516C468.223 100.516 470.811 100.711 472.324 101.004V109.5C471.348 109.354 469.98 109.256 468.662 109.256C463.926 109.256 461.729 111.453 461.729 115.652V120.242H472.129V129.617H461.973V172H449.814ZM499.375 173.025C488.535 173.025 483.408 168.631 483.408 157.986V129.617H476.084V120.242H483.408V107.107H495.762V120.242H505.381V129.617H495.762V156.961C495.762 162.039 498.008 163.65 502.451 163.65C503.623 163.65 504.551 163.504 505.381 163.455V172.586C503.965 172.781 501.816 173.025 499.375 173.025Z" fill="white"/>
</g>
<defs>
<filter id="filter0_i_8_7" x="71" y="34" width="200" height="204" filterUnits="userSpaceOnUse" color-interpolation-filters="sRGB">
<feFlood flood-opacity="0" result="BackgroundImageFix"/>
<feBlend mode="normal" in="SourceGraphic" in2="BackgroundImageFix" result="shape"/>
<feColorMatrix in="SourceAlpha" type="matrix" values="0 0 0 0 0 0 0 0 0 0 0 0 0 0 0 0 0 0 127 0" result="hardAlpha"/>
<feOffset dy="4"/>
<feGaussianBlur stdDeviation="2"/>
<feComposite in2="hardAlpha" operator="arithmetic" k2="-1" k3="1"/>
<feColorMatrix type="matrix" values="0 0 0 0 0 0 0 0 0 0 0 0 0 0 0 0 0 0 0.25 0"/>
<feBlend mode="normal" in2="shape" result="effect1_innerShadow_8_7"/>
</filter>
<linearGradient id="paint0_linear_8_7" x1="137" y1="94.4" x2="275.4" y2="219.2" gradientUnits="userSpaceOnUse">
<stop stop-color="#FF4300"/>
<stop offset="0.9999" stop-color="#FF0014"/>
<stop offset="1" stop-color="white" stop-opacity="0"/>
</linearGradient>
<clipPath id="clip0_8_7">
<rect width="619" height="269" rx="50" fill="white"/>
</clipPath>
</defs>
</svg>
