<svg width="619" height="269" viewBox="0 0 619 269" fill="none" xmlns="http://www.w3.org/2000/svg">
<g clip-path="url(#clip0_8_7)">
<rect width="619" height="269" rx="50" fill="#18171E"/>
<path d="M371.201 172V101.541H383.799V161.404H415.781V172H371.201ZM430.039 112.82C426.23 112.82 423.252 109.793 423.252 106.18C423.252 102.469 426.23 99.4902 430.039 99.4902C433.848 99.4902 436.777 102.469 436.777 106.18C436.777 109.793 433.848 112.82 430.039 112.82ZM423.936 172V120.242H436.094V172H423.936ZM449.814 172V129.617H442.734V120.242H449.814V115.311C449.814 105.203 454.6 100.516 465.83 100.516C468.223 100.516 470.811 100.711 472.324 101.004V109.5C471.348 109.354 469.98 109.256 468.662 109.256C463.926 109.256 461.729 111.453 461.729 115.652V120.242H472.129V129.617H461.973V172H449.814ZM499.375 173.025C488.535 173.025 483.408 168.631 483.408 157.986V129.617H476.084V120.242H483.408V107.107H495.762V120.242H505.381V129.617H495.762V156.961C495.762 162.039 498.008 163.65 502.451 163.65C503.623 163.65 504.551 163.504 505.381 163.455V172.586C503.965 172.781 501.816 173.025 499.375 173.025Z" fill="white"/>
<g filter="url(#filter0_i_8_7)">
<path d="M223.34 152.812C235.788 163.164 243.402 174.378 245.653 178.692C260.45 176.809 264.345 163.595 264.442 157.223L213.652 71.3496C215.707 65.762 219.817 54.469 219.817 53.9985C219.817 53.4103 200.147 59.292 192.514 66.3501C122.347 54.5866 92.6947 103.699 88.2909 140.46C83.8871 177.221 116.475 222.511 163.743 229.275C201.556 234.686 228.234 216.237 236.845 206.336C238.803 204.571 242.717 202.101 242.717 206.336C201.615 268.094 75.6667 240.156 75.6667 140.46C75.6667 130.579 78.1111 122.703 79.3333 120C77.2222 119.556 72.6 117.467 71 112.667C81.4 113.2 84.8889 105.556 85.3333 101.667C85.3333 101.667 75.6667 97 75.6667 87.3333C82 93 88.2909 93.4062 104.333 76.3333C132.6 50.2 175.628 48.509 193.688 50.7635C199.56 45.4699 223.34 39 230.093 39C233.851 39.2353 233.616 41.2547 233.029 42.235L227.157 67.5265C239.194 88.7988 265.617 135.99 275.012 154.576C281.177 179.574 241.836 194.866 240.075 191.631C232.442 174.574 196.918 147.812 177.247 131.343C161.511 118.168 158.752 100.562 159.339 93.4062C159.339 90.7594 164.917 87.5244 163.743 93.4062C162.275 100.758 168.44 111.934 180.77 121.933C210.423 144.871 207.78 139.872 223.34 152.812Z" fill="url(#paint0_linear_8_7)"/>
</g>
</g>
<defs>
<filter id="filter0_i_8_7" x="71" y="39" width="204.667" height="204" filterUnits="userSpaceOnUse" color-interpolation-filters="sRGB">
<feFlood flood-opacity="0" result="BackgroundImageFix"/>
<feBlend mode="normal" in="SourceGraphic" in2="BackgroundImageFix" result="shape"/>
<feColorMatrix in="SourceAlpha" type="matrix" values="0 0 0 0 0 0 0 0 0 0 0 0 0 0 0 0 0 0 127 0" result="hardAlpha"/>
<feOffset dy="5"/>
<feGaussianBlur stdDeviation="2"/>
<feComposite in2="hardAlpha" operator="arithmetic" k2="-1" k3="1"/>
<feColorMatrix type="matrix" values="0 0 0 0 0 0 0 0 0 0 0 0 0 0 0 0 0 0 0.25 0"/>
<feBlend mode="normal" in2="shape" result="effect1_innerShadow_8_7"/>
</filter>
<linearGradient id="paint0_linear_8_7" x1="71" y1="39" x2="275.667" y2="239" gradientUnits="userSpaceOnUse">
<stop stop-color="#FF4300"/>
<stop offset="1" stop-color="#FF0014"/>
</linearGradient>
<clipPath id="clip0_8_7">
<rect width="619" height="269" rx="50" fill="white"/>
</clipPath>
</defs>
</svg>
